<!DOCTYPE svg PUBLIC "-//W3C//DTD SVG 20010904//EN" "http://www.w3.org/TR/2001/REC-SVG-20010904/DTD/svg10.dtd">
<svg version="1.0" xmlns="http://www.w3.org/2000/svg" width="960px" height="540px" viewBox="0 0 9600 5400" preserveAspectRatio="xMidYMid meet">
<g id="layer101" fill="#0076bc" stroke="none">
 <path d="M0 2700 l0 -2700 4800 0 4800 0 0 2700 0 2700 -4800 0 -4800 0 0 -2700z"/>
 </g>
<g id="layer102" fill="#fbfcfe" stroke="none">
 <path d="M1550 2700 l0 -1250 3250 0 3250 0 0 1250 0 1250 -3250 0 -3250 0 0 -1250z m6458 3 l-3 -1218 -3205 0 -3205 0 -3 1218 -2 1217 3210 0 3210 0 -2 -1217z"/>
 <path d="M2651 3675 c-228 -50 -433 -175 -569 -348 -138 -176 -209 -365 -219 -583 -9 -183 21 -334 98 -488 117 -235 315 -406 570 -490 558 -185 1140 130 1283 695 142 561 -204 1106 -772 1215 -93 18 -306 17 -391 -1z m399 -52 c41 -8 109 -28 150 -44 156 -61 172 -58 -327 -59 -248 0 -458 -3 -467 -6 -9 -3 -16 -2 -16 3 0 13 119 67 205 92 139 42 294 46 455 14z m387 -178 l28 -24 -610 0 -610 0 28 24 28 25 554 0 554 0 28 -25z m88 -75 l29 -30 -699 0 -699 0 29 30 29 30 641 0 641 0 29 -30z m-774 -157 c7 -209 1 -443 -11 -443 -6 0 -10 85 -10 235 0 150 4 235 10 235 6 0 10 -12 11 -27z m639 -133 c0 -118 -2 -140 -15 -140 -13 0 -15 21 -15 133 0 74 3 137 7 140 19 19 23 -5 23 -133z m-205 -75 c0 -126 -3 -169 -12 -172 -10 -4 -13 35 -13 172 0 137 3 176 13 173 9 -4 12 -47 12 -173z m-295 74 c0 -111 6 -119 89 -119 l61 0 0 -100 0 -100 55 0 c52 0 55 1 55 25 0 22 4 25 35 25 l35 0 0 155 0 155 25 0 c24 0 24 -1 27 -102 l3 -103 73 -3 72 -3 0 125 c0 75 4 126 10 128 6 2 31 2 55 0 l45 -4 0 -59 0 -59 60 0 60 0 0 60 c0 52 3 60 19 60 42 0 117 -226 127 -385 l6 -90 -189 -105 c-199 -111 -210 -115 -294 -90 l-46 13 -202 -88 c-111 -48 -200 -93 -198 -98 2 -6 64 -31 138 -56 143 -49 159 -56 159 -73 0 -6 -15 -8 -42 -3 -24 4 -145 9 -271 12 l-227 4 -11 -28 c-16 -42 -39 -63 -69 -63 -33 0 -50 17 -50 50 0 39 29 59 101 71 35 6 91 23 124 39 33 15 68 31 78 34 37 12 12 34 -109 94 l-125 62 -98 -30 c-54 -16 -106 -30 -115 -30 -10 0 -55 23 -102 50 -69 41 -93 50 -132 50 -36 1 -66 11 -127 43 l-80 42 1 140 c1 119 5 152 27 225 41 135 64 182 90 178 18 -2 23 -11 25 -43 2 -22 12 -49 22 -60 10 -11 20 -29 22 -40 4 -26 32 -26 37 0 2 11 14 30 27 42 18 16 24 33 24 63 0 39 1 40 35 40 l35 0 0 -155 0 -155 90 0 90 0 0 100 0 100 50 0 50 0 0 50 c0 49 1 50 30 50 l30 0 0 -195 c0 -238 9 -265 86 -265 20 0 24 5 24 30 0 22 7 33 29 45 44 22 53 63 51 247 -1 90 -1 169 -1 176 1 8 18 12 51 12 l50 0 0 -91z m-380 15 c0 -73 -24 -70 -28 4 -2 42 0 52 12 52 13 0 16 -12 16 -56z m-340 7 c0 -16 -3 -36 -6 -45 -12 -31 -24 -16 -24 29 0 33 4 45 15 45 10 0 15 -10 15 -29z m884 -932 c-9 -15 -122 -68 -162 -75 -30 -6 -33 -9 -27 -35 6 -25 4 -29 -15 -29 -18 0 -21 4 -15 28 5 27 3 29 -52 46 -64 20 -133 55 -133 68 0 4 93 8 206 8 147 0 203 -3 198 -11z m110 -57 c9 -31 -7 -92 -24 -92 -8 0 -30 46 -30 63 0 22 25 67 35 64 5 -2 14 -18 19 -35z"/>
 <path d="M2345 2593 c11 -105 17 -133 26 -133 18 0 159 44 159 50 -1 6 -176 140 -185 140 -4 0 -4 -26 0 -57z"/>
 <path d="M2092 2596 c-18 -39 -15 -46 17 -46 40 0 44 11 17 44 l-22 28 -12 -26z"/>
 <path d="M3490 2606 c-33 -9 -49 -19 -58 -40 -8 -15 -12 -29 -10 -31 2 -2 39 16 83 40 83 46 78 56 -15 31z"/>
 <path d="M2899 2513 c-40 -104 -48 -127 -46 -129 3 -4 355 141 363 149 4 4 -63 7 -150 7 l-156 0 -11 -27z"/>
 <path d="M2549 2181 c-22 -18 -22 -20 -6 -26 19 -8 47 10 47 31 0 19 -14 17 -41 -5z"/>
 <path d="M4120 2705 c0 -603 3 -915 10 -915 7 0 10 312 10 915 0 603 -3 915 -10 915 -7 0 -10 -312 -10 -915z"/>
 <path d="M4525 3601 c-22 -10 -49 -26 -60 -34 -19 -15 -19 -17 -3 -33 15 -16 18 -15 45 4 71 50 165 53 203 5 41 -53 15 -93 -77 -118 -135 -37 -163 -61 -163 -135 1 -51 11 -69 60 -99 55 -33 159 -24 211 18 20 16 21 21 10 35 -12 14 -17 14 -52 -4 -46 -24 -126 -26 -157 -4 -32 22 -30 76 3 103 14 11 40 22 58 26 68 14 125 37 146 59 52 55 28 152 -44 182 -48 20 -132 17 -180 -5z"/>
 <path d="M5004 3601 c-175 -80 -159 -358 25 -420 71 -23 164 -9 216 33 27 22 29 26 14 41 -14 14 -19 13 -62 -11 -158 -88 -324 66 -248 231 46 101 163 133 257 69 34 -23 38 -24 53 -9 15 15 14 18 -9 36 -64 52 -169 65 -246 30z"/>
 <path d="M5387 3613 c-4 -3 -7 -102 -7 -220 l0 -213 25 0 c25 0 25 0 25 95 l0 96 128 -3 127 -3 3 -92 c3 -92 3 -93 28 -93 l24 0 -2 218 c-3 215 -3 217 -25 220 -22 3 -22 0 -25 -95 l-3 -98 -127 -3 -128 -3 0 101 c0 90 -2 100 -18 100 -10 0 -22 -3 -25 -7z"/>
 <path d="M5985 3601 c-162 -73 -165 -320 -6 -403 212 -111 422 130 288 329 -43 63 -101 93 -181 93 -37 0 -77 -8 -101 -19z m185 -46 c37 -19 76 -78 85 -126 10 -53 -11 -116 -54 -162 -36 -38 -42 -41 -104 -45 -55 -4 -72 -1 -101 17 -45 28 -74 76 -82 133 -20 148 124 251 256 183z"/>
 <path d="M6544 3606 c-113 -50 -162 -200 -103 -317 76 -150 292 -160 386 -18 32 48 43 144 23 204 -16 49 -66 104 -115 126 -48 22 -146 24 -191 5z m153 -41 c98 -41 138 -143 97 -246 -26 -62 -82 -99 -154 -99 -104 0 -170 68 -170 174 0 134 113 219 227 171z"/>
 <path d="M6990 3400 l0 -220 25 0 25 0 0 195 0 195 119 0 c87 0 121 3 124 13 11 33 -4 37 -149 37 l-144 0 0 -220z"/>
 <path d="M7434 3596 c-60 -28 -72 -42 -51 -63 13 -13 19 -12 57 13 34 23 54 28 101 29 70 0 102 -24 102 -76 0 -39 -19 -55 -93 -75 -99 -26 -143 -54 -159 -99 -12 -37 -12 -45 4 -78 39 -83 186 -104 267 -37 21 17 22 20 7 35 -15 15 -19 15 -50 -4 -37 -23 -117 -28 -150 -10 -28 15 -41 54 -27 83 12 27 35 39 123 61 115 30 158 92 119 172 -37 74 -149 96 -250 49z"/>
 <path d="M5202 3027 c-52 -19 -103 -66 -126 -116 -19 -41 -21 -68 -24 -253 l-4 -208 36 0 36 0 0 198 c0 185 1 201 23 242 31 64 90 93 171 87 71 -6 103 -27 134 -87 21 -41 22 -57 22 -242 l0 -198 35 0 35 0 0 188 c0 217 -11 271 -66 332 -21 23 -53 45 -81 54 -54 19 -144 20 -191 3z"/>
 <path d="M7394 3028 c-54 -18 -125 -80 -157 -137 -58 -103 -47 -246 27 -343 92 -121 302 -144 419 -47 l38 31 -22 24 -22 23 -33 -26 c-125 -94 -292 -56 -355 82 -25 54 -25 157 0 210 65 141 230 177 359 78 l34 -26 21 22 22 22 -30 25 c-61 51 -106 67 -190 70 -44 2 -94 -2 -111 -8z"/>
 <path d="M4460 2739 l0 -291 153 4 c140 3 156 5 197 28 126 70 116 257 -17 320 -37 17 -72 24 -155 28 l-108 5 0 98 0 99 -35 0 -35 0 0 -291z m303 6 c95 -45 89 -180 -9 -221 -21 -9 -70 -14 -129 -14 l-95 0 0 131 0 132 98 -5 c64 -3 110 -11 135 -23z"/>
 <path d="M5740 2740 l0 -290 150 0 c160 0 201 9 247 52 53 50 48 147 -11 201 -19 18 -26 32 -19 34 7 2 27 14 45 26 96 65 60 219 -60 255 -23 7 -104 12 -196 12 l-156 0 0 -290z m340 215 c38 -20 60 -53 60 -90 -1 -72 -52 -95 -215 -95 l-125 0 0 100 0 100 125 0 c92 0 134 -4 155 -15z m-13 -271 c59 -44 52 -133 -13 -160 -22 -9 -73 -14 -144 -14 l-110 0 0 101 0 101 119 -3 c102 -3 124 -7 148 -25z"/>
 <path d="M6380 2740 l0 -290 35 0 35 0 0 260 0 260 163 2 162 3 0 25 0 25 -197 3 -198 2 0 -290z"/>
 <path d="M6940 2740 l0 -290 35 0 35 0 0 290 0 290 -35 0 -35 0 0 -290z"/>
 <path d="M4460 2045 l0 -268 128 5 c173 7 242 38 298 134 59 100 38 242 -47 319 -63 57 -99 67 -246 73 l-133 4 0 -267z m291 182 c63 -33 99 -90 106 -163 4 -51 1 -66 -24 -114 -23 -44 -39 -60 -82 -82 -47 -25 -64 -28 -142 -28 l-89 0 0 205 0 205 93 0 c79 0 101 -4 138 -23z"/>
 <path d="M5062 2048 l3 -263 185 0 185 0 3 28 3 27 -160 0 -161 0 0 90 0 90 145 0 145 0 0 25 0 25 -145 0 -145 0 0 90 0 90 159 0 c151 0 160 1 166 20 3 11 3 24 0 30 -4 6 -79 10 -196 10 l-189 0 2 -262z"/>
 <path d="M5580 2045 l0 -265 24 0 c28 0 37 9 215 238 74 95 138 172 143 172 4 0 7 -91 7 -202 l0 -203 25 -3 26 -3 0 265 0 266 -22 0 c-18 0 -61 -49 -188 -210 l-165 -210 -3 210 -2 210 -30 0 -30 0 0 -265z"/>
 <path d="M6257 2058 c-59 -139 -107 -259 -107 -265 0 -7 11 -13 24 -13 13 0 28 6 33 13 6 6 50 108 98 225 54 131 91 209 95 200 4 -7 45 -103 90 -213 46 -110 87 -206 93 -212 5 -7 20 -13 33 -13 13 0 24 6 23 13 0 6 -49 125 -108 262 -104 241 -108 250 -137 253 -29 2 -29 2 -137 -250z"/>
 <path d="M6765 2297 c-3 -7 -4 -125 -3 -262 l3 -250 188 -3 187 -2 0 30 0 30 -160 0 -161 0 3 88 3 87 143 3 142 3 0 24 0 24 -142 3 -143 3 -3 87 -3 88 163 2 163 3 3 28 3 27 -191 0 c-145 0 -192 -3 -195 -13z"/>
 <path d="M7282 2048 l3 -263 140 0 c127 0 144 2 189 24 37 18 53 34 67 65 23 51 23 74 3 126 -17 43 -53 74 -97 85 -15 4 -27 9 -27 12 0 2 34 49 75 103 41 54 75 102 75 105 0 3 -15 5 -33 5 -30 0 -39 -9 -107 -100 l-74 -100 -78 0 -78 0 0 100 0 100 -30 0 -30 0 2 -262z m293 -12 c71 -30 83 -124 22 -170 -24 -18 -45 -21 -143 -24 l-114 -4 0 106 0 106 100 0 c65 0 113 -5 135 -14z"/>
 </g>

</svg>